<svg width="512" height="512" viewBox="0 0 512 512" fill="none" xmlns="http://www.w3.org/2000/svg">
<path d="M386.1 17.5004C352.2 25.1004 325.7 46.0004 311.4 76.4004C309.6 80.3004 306.8 87.5004 305.3 92.5004C302.7 101 302.6 102.6 302.6 121C302.6 139.4 302.7 141 305.3 149.5C316.4 185.9 342.2 211.7 378.5 222.7C387 225.2 388.6 225.4 407 225.4C425.3 225.4 427.1 225.2 435.5 222.7C471.5 211.9 497.6 185.8 508.7 149.5C511.3 141 511.4 139.4 511.4 121C511.4 102.6 511.3 101 508.7 92.5004C499.6 62.8004 480.9 40.1004 454.5 27.0004C438 18.8004 429.6 16.8004 409.5 16.4004C397.3 16.1004 390.7 16.5004 386.1 17.5004ZM422 91.0004V106H437H452V121V136H437H422V151V166H407H392V151V136H377H362V121V106H377H392V91.0004V76.0004H407H422V91.0004Z" fill="#75A8D9"/>
<path d="M0 91V106H47.3H94.5L121 225.9L147.6 345.8L136 346.2C125.4 346.5 124 346.8 117.5 350C108.3 354.4 100.4 362.3 95.9 371.5C92.6 378.3 92.5 378.8 92.5 391C92.5 403 92.6 403.7 95.7 410.1C101.5 421.9 110.3 429.8 122.5 434C127.1 435.6 130.9 436 141.2 436H154L153.3 438.7C152.8 440.3 152.5 446.4 152.5 452.5C152.5 462.8 152.7 463.9 155.7 470.1C161.5 481.9 170.3 489.7 182.6 494.1C187.5 495.8 190.3 496.1 199 495.8C208.5 495.5 210.2 495.1 216.5 492C225.7 487.6 233.6 479.7 238.1 470.5C241.3 463.8 241.5 463 241.5 452.5C241.5 446.4 241.2 440.3 240.7 438.7L240 436H272H304L303.3 438.8C302.8 440.3 302.5 446.4 302.5 452.5C302.5 462.8 302.7 463.9 305.7 470.1C311.5 481.9 320.3 489.7 332.6 494.1C337.5 495.8 340.3 496.1 349 495.8C358.5 495.5 360.2 495.1 366.5 492C375.7 487.6 383.6 479.7 388.1 470.5C391.3 463.8 391.5 463 391.5 452.5C391.5 446.4 391.2 440.3 390.7 438.8L390 436H406H422V421V406L277.8 405.8L133.5 405.5L130 403.3C125.4 400.5 123 396.2 123 391C123 385.8 125.4 381.5 130 378.7L133.5 376.5L276.4 376L419.3 375.5L435.7 312.5C444.6 277.8 452 249 452 248.4C452 247.6 449.4 248 444.3 249.5C440 250.7 432.5 252.3 427.7 253C422.9 253.7 418.7 254.7 418.4 255.2C418.1 255.6 402.3 256 383.3 256H348.7L349.4 249.1L350.1 242.2L342.8 238.2C338.8 236 332.4 231.9 328.5 229.1C324.7 226.3 321.3 224 320.9 224C320.6 224 319.7 231.2 319 240L317.7 256H286.9H256V253.7C256 251.1 252.3 205.9 251.6 199.7L251.2 196H273.1C285.1 196 295 195.8 295 195.6C295 195.3 293.4 192.5 291.5 189.3C289.6 186 286.4 179.6 284.5 174.9L281.1 166.5L210.3 166L139.6 165.5L129.6 120.7L119.7 75.9999H59.8H0V91ZM220.4 200.2C221 204.5 225 252.4 225 254.8C225 255.8 218.1 256 192.3 255.8L159.6 255.5L152.9 225.7L146.3 196H183.1H219.9L220.4 200.2ZM228 288.3C228 290.9 231.7 336.1 232.4 342.3L232.8 346L206.2 345.8L179.6 345.5L172.9 315.7L166.3 286H197.2H228V288.3ZM315 287.2C315 289.6 311 337.5 310.4 341.7L309.9 346H287H264.1L263.6 341.7C263 337.5 259 289.6 259 287.2C259 286.3 265.3 286 287 286C308.7 286 315 286.3 315 287.2ZM410 286.7C410 287.2 406.6 300.5 402.5 316.3C398.4 332.2 395 345.3 395 345.6C395 345.8 382.9 346 368.1 346H341.2L341.6 342.2C342.3 336.1 346 290.9 346 288.3V286H378C395.6 286 410 286.3 410 286.7ZM204.4 438.9C208.7 441.8 211 445.9 211 451C211 459 205 465 197 465C189 465 183 459 183 451C183 443 189 437 197 437C199.7 437 202.6 437.8 204.4 438.9ZM354.4 438.9C358.7 441.8 361 445.9 361 451C361 459 355 465 347 465C339 465 333 459 333 451C333 443 339 437 347 437C349.7 437 352.6 437.8 354.4 438.9Z" fill="#75A8D9"/>
</svg>
